# xmcd
#
# Track frame offsets:
#	150
#	33702
#	50340
#	76802
#	94315
#	117860
#	133685
#	163937
#
# Disc length: 2434 seconds
#
# Revision: 1
# Processed by: cddbd v1.5.1PL2 Copyright (c) Steve Scherf et al.
# Submitted via: EasyCDDAExtractor 9.0.0.1
#
DISCID=67098008
DTITLE=Mickey Newbury - Looks Like Rain
DYEAR=1969
DGENRE=Country
TTITLE0=Write A Song A Song - Angeline
TTITLE1=She Even Woke Me Up To Say Goodbye
TTITLE2=I Don't Think Much About Her No More
TTITLE3=''T'' Total Tommy
TTITLE4=33rd Of August
TTITLE5=When The Baby In My Lady Gets The Blues
TTITLE6=San Francisco Mabel Joy
TTITLE7=Looks Like Baby's Gone
EXTD=
EXTT0=
EXTT1=
EXTT2=
EXTT3=
EXTT4=
EXTT5=
EXTT6=
EXTT7=
PLAYORDER=
